<svg width="560" height="420" viewBox="0 0 560 420" fill="none" xmlns="http://www.w3.org/2000/svg" role="img" aria-labelledby="title desc">
  <title id="title">Applications dashboard empty state preview</title>
  <desc id="desc">A stylized dashboard illustration showing daily job scans, matched roles, and applied job rows.</desc>
  <defs>
    <linearGradient id="bg" x1="40" y1="26" x2="513" y2="382" gradientUnits="userSpaceOnUse">
      <stop stop-color="#FFF8EF"/>
      <stop offset="1" stop-color="#FFE6CC"/>
    </linearGradient>
    <linearGradient id="hero" x1="82" y1="68" x2="344" y2="196" gradientUnits="userSpaceOnUse">
      <stop stop-color="#1E1A17"/>
      <stop offset="1" stop-color="#3A2A21"/>
    </linearGradient>
    <linearGradient id="glow" x1="312" y1="43" x2="437" y2="149" gradientUnits="userSpaceOnUse">
      <stop stop-color="#FFD6B3"/>
      <stop offset="1" stop-color="#FFB06B"/>
    </linearGradient>
    <filter id="shadow" x="12" y="12" width="536" height="396" filterUnits="userSpaceOnUse" color-interpolation-filters="sRGB">
      <feFlood flood-opacity="0" result="BackgroundImageFix"/>
      <feColorMatrix in="SourceAlpha" type="matrix" values="0 0 0 0 0 0 0 0 0 0 0 0 0 0 0 0 0 0 127 0" result="hardAlpha"/>
      <feOffset dy="14"/>
      <feGaussianBlur stdDeviation="18"/>
      <feColorMatrix type="matrix" values="0 0 0 0 0.537255 0 0 0 0 0.247059 0 0 0 0 0.0627451 0 0 0 0.14 0"/>
      <feBlend mode="normal" in2="BackgroundImageFix" result="effect1_dropShadow_1_1"/>
      <feBlend mode="normal" in="SourceGraphic" in2="effect1_dropShadow_1_1" result="shape"/>
    </filter>
  </defs>
  <g filter="url(#shadow)">
    <rect x="48" y="30" width="464" height="348" rx="28" fill="url(#bg)"/>
    <circle cx="468" cy="84" r="66" fill="url(#glow)" fill-opacity="0.92"/>
    <circle cx="445" cy="76" r="45" fill="#FFF4E9"/>
    <rect x="80" y="66" width="292" height="148" rx="30" fill="url(#hero)"/>
    <rect x="108" y="88" width="146" height="32" rx="16" fill="#EF562A"/>
    <text x="129" y="108" fill="#FFF8EF" font-family="Arial, sans-serif" font-size="12" font-weight="700">Next run 3:00 AM</text>
    <text x="106" y="142" fill="#FFF8EF" font-family="Georgia, serif" font-size="24" font-weight="700">Fresh matches</text>
    <text x="106" y="173" fill="#FFF8EF" font-family="Georgia, serif" font-size="24" font-weight="700">will show up</text>
    <text x="106" y="204" fill="#FFF8EF" font-family="Georgia, serif" font-size="24" font-weight="700">right here</text>
    <text x="106" y="236" fill="#C9B7AB" font-family="Arial, sans-serif" font-size="13">Matched to your resume, target roles,</text>
    <text x="106" y="254" fill="#C9B7AB" font-family="Arial, sans-serif" font-size="13">location, and work preferences.</text>

    <rect x="398" y="96" width="106" height="122" rx="30" fill="#FFF8EF"/>
    <rect x="418" y="120" width="68" height="10" rx="5" fill="#F3BE91"/>
    <rect x="418" y="143" width="47" height="10" rx="5" fill="#F3BE91"/>
    <rect x="418" y="171" width="66" height="26" rx="13" fill="#1E1A17"/>
    <text x="431" y="188" fill="#FFF8EF" font-family="Arial, sans-serif" font-size="10" font-weight="700">MATCHED</text>

    <rect x="82" y="274" width="128" height="38" rx="19" fill="#FFF8EF"/>
    <circle cx="109" cy="293" r="8" fill="#EF562A"/>
    <text x="126" y="298" fill="#1E1A17" font-family="Arial, sans-serif" font-size="13" font-weight="700">Daily scan</text>

    <rect x="216" y="274" width="128" height="38" rx="19" fill="#FFF8EF"/>
    <circle cx="243" cy="293" r="8" fill="#F5A24E"/>
    <text x="260" y="298" fill="#1E1A17" font-family="Arial, sans-serif" font-size="13" font-weight="700">Resume fit</text>

    <rect x="350" y="274" width="132" height="38" rx="19" fill="#FFF8EF"/>
    <circle cx="377" cy="293" r="8" fill="#3DAF74"/>
    <text x="394" y="298" fill="#1E1A17" font-family="Arial, sans-serif" font-size="13" font-weight="700">Applied feed</text>

    <rect x="82" y="336" width="430" height="78" rx="28" fill="#FFFDF9"/>
    <rect x="106" y="359" width="70" height="22" rx="11" fill="#FFE6D6"/>
    <text x="124" y="374" fill="#AF4C1E" font-family="Arial, sans-serif" font-size="10" font-weight="700">94% fit</text>
    <text x="193" y="372" fill="#1E1A17" font-family="Arial, sans-serif" font-size="15" font-weight="700">Frontend Engineer</text>
    <text x="193" y="396" fill="#706259" font-family="Arial, sans-serif" font-size="12">Notion . Remote US</text>
    <rect x="411" y="359" width="78" height="24" rx="12" fill="#E2F6E9"/>
    <text x="432" y="375" fill="#24724C" font-family="Arial, sans-serif" font-size="10" font-weight="700">Applied</text>
  </g>
</svg>
