<svg width="32" height="32" viewBox="0 0 32 32" fill="none" xmlns="http://www.w3.org/2000/svg">
  <rect width="32" height="32" fill="white"/>
  <!-- Serif-style BFE in accent color -->
  <g fill="#ef562a">
    <!-- B - serif style -->
    <path d="M2.5 7h4.8c2.4 0 4 1.3 4 3.3 0 1.4-.8 2.4-2 2.9 1.5.4 2.4 1.6 2.4 3.2 0 2.2-1.7 3.6-4.3 3.6H2.5V7zm1.8 5.4h2.8c1.5 0 2.4-.7 2.4-1.9 0-1.1-.9-1.8-2.4-1.8H4.3v3.7zm0 5.8h3.2c1.6 0 2.6-.8 2.6-2.1 0-1.3-1-2.1-2.6-2.1H4.3v4.2z"/>
    <!-- F - serif style -->
    <path d="M13 7h6.5v1.7h-4.7v4h4v1.7h-4v5.6H13V7z"/>
    <!-- E - serif style -->
    <path d="M21 7h6.8v1.7h-5v4h4.5v1.7h-4.5v4h5.2v1.6H21V7z"/>
  </g>
</svg>
